{"title":"Monsters.University.2013.720p.HDRiP.XViD-UNiQUE","uid":9022148,"size":2686451194,"categoryP":"video","categoryS":"hd___movies","magnet":"?xt=urn:btih:8ec24e48a60d9002e6b8de812bd2ff140675ac93&amp;dn=Monsters.University.2013.720p.HDRiP.XViD-UNiQUE&amp;tr=udp%3A%2F%2Ftracker.openbittorrent.com%3A80&amp;tr=udp%3A%2F%2Fopen.demonii.com%3A1337&amp;tr=udp%3A%2F%2Ftracker.coppersurfer.tk%3A6969&amp;tr=udp%3A%2F%2Fexodus.desync.com%3A6969","seeders":5,"leechers":1,"uploader":"Thhaque","files":3,"time":1381289786,"description":" &lt;a href=&quot;http://www.impawards.com/2013/posters/monsters_university_ver2.jpg&quot; rel=&quot;nofollow&quot; target=&quot;_NEW&quot;&gt;http://www.impawards.com/2013/posters/monsters_university_ver2.jpg&lt;/a&gt;\n\n\n\nFormat                                   : AVI\nFormat/Info                              : Audio Video Interleave\nFormat profile                           : OpenDML\nFile size                                : 2.48 GiB\nDuration                                 : 1h 43mn\nOverall bit rate                         : 3 416 Kbps\nWriting application                      : VirtualDubMod 1.5.10.2 (build 2540/release)\nWriting library                          : VirtualDubMod build 2540/release\n\nVideo\nID                                       : 0\nFormat                                   : MPEG-4 Visual\nFormat profile                           : Advanced Simple@L5\nFormat settings, BVOP                    : 2\nFormat settings, QPel                    : No\nFormat settings, GMC                     : No warppoints\nFormat settings, Matrix                  : Default (H.263)\nMuxing mode                              : Packed bitstream\nCodec ID                                 : XVID\nCodec ID/Hint                            : XviD\nDuration                                 : 1h 43mn\nBit rate                                 : 3 021 Kbps\nWidth                                    : 1 280 pixels\nHeight                                   : 720 pixels\nDisplay aspect ratio                     : 16:9\nFrame rate                               : 23.976 fps\nColor space                              : YUV\nChroma subsampling                       : 4:2:0\nBit depth                                : 8 bits\nScan type                                : Progressive\nCompression mode                         : Lossy\nBits/(Pixel*Frame)                       : 0.137\nStream size                              : 2.19 GiB (88%)\nWriting library                          : XviD 64\n\nAudio\nID                                       : 1\nFormat                                   : AC-3\nFormat/Info                              : Audio Coding 3\nMode extension                           : CM (complete main)\nFormat settings, Endianness              : Big\nCodec ID                                 : 2000\nDuration                                 : 1h 43mn\nBit rate mode                            : Constant\nBit rate                                 : 384 Kbps\nChannel(s)                               : 6 channels\nChannel positions                        : Front: L C R, Side: L R, LFE\nSampling rate                            : 48.0 KHz\nBit depth                                : 16 bits\nCompression mode                         : Lossy\nStream size                              : 285 MiB (11%)\nAlignment                                : Split accross interleaves\nInterleave, duration                     : 42 ms (1.00 video frame)\nInterleave, preload duration             : 500 ms\n\n\n\n\nScreenshots:\n\n\n\n &lt;a href=&quot;\nhttp://www.imdb.com/title/tt1453405/&quot; rel=&quot;nofollow&quot; target=&quot;_NEW&quot;&gt;\nhttp://www.imdb.com/title/tt1453405/&lt;/a&gt;\n\n\n\nStoryline\n\nMike Wazowski and James P. Sullivan are an inseparable pair, but that wasn't always the case. From the moment these two mismatched monsters met they couldn't stand each other. &quot;Monsters University&quot; unlocks the door to how Mike and Sulley overcame their differences and became the best of friends.\n\n\n\n\nSource Used iTUNES   - Thanks\n\n\n\n\n\nGreets now going out to !\n\n\n\nJUSTiCE and the rest can just KMMFA      :lol:\n\n\n\n\n\n\n","torrent":{"xt":"urn:btih:8ec24e48a60d9002e6b8de812bd2ff140675ac93","amp;dn":"Monsters.University.2013.720p.HDRiP.XViD-UNiQUE","amp;tr":["udp%3A%2F%2Ftracker.openbittorrent.com%3A80","udp%3A%2F%2Fopen.demonii.com%3A1337","udp%3A%2F%2Ftracker.coppersurfer.tk%3A6969","udp%3A%2F%2Fexodus.desync.com%3A6969"],"infoHash":"8ec24e48a60d9002e6b8de812bd2ff140675ac93","infoHashBuffer":{"type":"Buffer","data":[142,194,78,72,166,13,144,2,230,184,222,129,43,210,255,20,6,117,172,147]},"announce":[],"urlList":[]}}